<?xml version="1.0" encoding="UTF-8"?>
<svg id="Layer_1" data-name="Layer 1" xmlns="http://www.w3.org/2000/svg" version="1.1" viewBox="0 0 400 400">
  <defs>
    <style>
      .cls-1 {
        fill: #e57c7e;
      }

      .cls-1, .cls-2 {
        stroke-width: 0px;
      }

      .cls-2 {
        fill: #578c86;
      }
    </style>
  </defs>
  <g id="Layer_1-2" data-name="Layer 1-2">
    <g>
      <path class="cls-1" d="M58.6,123.5H11.9c-.7,0-1.5-.5-1.5-1.4v-18.1c0-.7.6-1.3,1.3-1.4l204.9-10.6c1.7,0,2,2.1.6,2.7l-72.1,23.1c-11.7,3.8-23.7,5.5-36,5.7h-.2l-28,4.5c-.7,0-1.3.9-1.1,1.6l20.2,85.3v.9l-38.8,71c-.7,1.3-2.6.7-2.6-.7V123.3h0v.2Z"/>
      <path class="cls-2" d="M95.5,151.4l43.4,67.8c7,10.9,13.3,20.9,19.1,31.3h.4c-2.6-12.3-4.8-24.5-7-38.1l-13.9-78.4c-.6-3,.9-5.9,3.7-7.5h0c4.4-2.5,10.2.2,10.9,5.2l19.1,126c.9,5.7-5.4,10-10.8,7.3l-50.6-26.1c-1.7-.9-3-2.3-3.5-4.1l-23.4-70.1c-1.1-3.2.4-6.8,3.5-8.4l8.9-4.8h.2Z"/>
      <path class="cls-1" d="M269.2,270.6c-7,3.8-20.2,5.4-36.7,9.8-.7.2-1.5.7-2.2,1.1-30,25.8-47.5-27.9-43.4-16.5-13.3-14.3-19.3-48.8-19.3-77.6.2-55.3,25.6-95.5,66.9-95.5s23.4,9.3,34.3,20.4c4.6,4.7-1.9,11.6-7.2,7.7h0s-.2,0-.4-.2c-6.7-4.3-14.8-7.9-27.3-7.9-30,0-49.7,28.1-49.7,74.4s18.9,74.8,47.8,74.8,14.1-1.3,18.2-3.2c1.9-.9,3.2-2.7,3.2-4.7v-47.1c0-2.9-2.4-5.2-5.4-5.2h-11.9c-3.9,0-6.5-3.8-5-7.2l22.4-54.7c2-5,9.6-4.1,10.4,1.3l5,41v89.3h.2Z"/>
      <path class="cls-2" d="M314.6,145.5c-2.8,4.5-13.2-.4-25.6-13.6-10.9-11.8-16.1-23.4-13-27.6,3.3-4.3,13.9,1.1,25.2,13.2,11.7,12.5,16.5,23.8,13.3,28.1h0v-.2ZM281.3,236.8l-11.1-96.4c-.2-1.6.9-2.9,2.4-3.2h1.1c5.4-1.1,10.4,2.1,11.7,7.2l37.5,146c.7,3.2-3.7,5-5.6,2.1l-36.3-55.8h.4v.2Z"/>
      <path class="cls-1" d="M311.7,191c0-17.5,0-32.9-.6-47.1,0-3.2,2.6-6.1,6.1-6.1h1.7c3.3,0,5.9,2.5,6.1,5.7l.4,27.6h.7c3.9-22.9,17.1-21.8,24.3-37.2.7-1.6,21.3-40.8,22.8-40.1l8.5,2c4.1.9,5.9,5.4,3.9,8.8-10.4,16.6-34.1,58.7-36,58.7-11.3,0-19.3,16.5-21.5,39.7-.4,4.3-.7,9.1-.7,14.5v84.8c0,3.2-2.8,5.9-6.1,5.9h-3.5c-3.3,0-6.1-2.7-6.1-5.9v-111.1c-.2,0,0,0,0,0h0v-.2Z"/>
      <path class="cls-2" d="M373.4,94l10.8,2.5c3.5.9,5.9,4.1,5.4,7.7l-31.5,195.2c-.6,3.9-4.6,6.4-8.5,5.5l-3.3-.7c-3.5-.9-5.9-4.1-5.4-7.7l32.6-202.3h0v-.2Z"/>
    </g>
  </g>
</svg>